<?xml version="1.0" encoding="UTF-8" ?>
<!DOCTYPE svg PUBLIC "-//W3C//DTD SVG 1.1//EN" "http://www.w3.org/Graphics/SVG/1.1/DTD/svg11.dtd">
<svg width="896pt" height="896pt" viewBox="0 0 896 896" version="1.1" xmlns="http://www.w3.org/2000/svg">
<path fill="#ffffff" d=" M 0.00 0.00 L 896.00 0.00 L 896.00 388.76 C 831.83 376.09 766.10 373.51 700.87 375.64 C 701.91 371.47 702.78 367.25 704.20 363.19 C 704.60 362.03 705.01 360.88 705.45 359.73 C 709.42 357.85 707.40 353.51 706.94 350.25 C 710.83 347.85 708.56 343.53 708.08 340.00 C 707.94 333.34 709.17 326.74 709.44 320.10 C 710.35 303.43 710.98 286.70 710.09 270.02 C 708.02 236.04 695.22 202.75 673.42 176.54 C 669.66 171.88 665.50 167.58 661.43 163.21 C 671.44 129.76 667.59 93.28 654.87 61.11 C 654.18 58.53 650.91 59.13 648.90 58.74 C 632.31 57.98 616.05 62.80 600.74 68.75 C 580.63 76.63 561.98 87.66 543.79 99.19 C 545.53 94.07 547.53 89.03 549.77 84.10 C 546.85 89.40 544.20 94.84 541.78 100.38 C 532.97 98.56 524.20 96.55 515.35 94.97 C 518.67 84.14 522.45 73.46 526.79 63.01 C 521.12 73.07 516.57 83.72 512.37 94.47 C 502.20 92.92 492.00 91.67 481.76 90.74 C 482.22 77.75 483.93 64.85 485.70 51.98 C 482.77 64.69 479.97 77.46 478.57 90.44 C 460.11 89.19 441.57 88.82 423.10 89.92 C 421.82 78.89 419.97 67.92 417.29 57.14 C 419.21 67.99 419.91 79.00 420.38 89.99 C 411.49 90.59 402.62 91.58 393.75 92.45 C 393.70 91.61 393.61 89.93 393.56 89.09 C 393.40 90.28 393.24 91.48 393.10 92.68 C 387.49 93.35 381.91 94.20 376.34 95.14 C 373.62 81.88 369.77 68.86 365.22 56.11 C 368.82 69.11 371.28 82.40 373.21 95.74 C 364.62 97.17 356.13 99.17 347.65 101.15 C 345.02 94.97 342.17 88.89 339.04 82.94 C 341.38 89.24 343.89 95.48 345.93 101.89 C 343.71 102.15 341.15 103.48 339.15 101.87 C 322.69 90.79 305.53 80.63 287.40 72.52 C 271.73 65.63 255.22 59.86 238.02 58.74 C 233.71 58.71 229.02 58.15 224.98 59.83 C 210.58 94.68 207.22 135.06 220.33 170.85 C 199.03 193.38 184.40 222.20 179.21 252.80 C 177.44 263.09 176.59 273.53 176.66 283.96 C 176.73 302.20 177.72 320.51 180.87 338.50 C 180.80 340.38 180.14 342.16 179.75 343.99 C 179.56 345.83 181.40 346.71 182.51 347.80 C 182.62 349.85 182.18 351.88 182.22 353.93 C 183.46 356.24 184.98 358.43 185.64 361.01 C 187.03 365.85 188.51 370.67 190.11 375.45 C 127.89 373.75 65.23 376.24 3.99 388.01 C 2.66 388.18 1.33 388.29 0.00 388.34 L 0.00 0.00 Z" />
<path fill="#253a4a" d=" M 485.70 51.98 C 483.93 64.85 482.22 77.75 481.76 90.74 C 481.38 95.71 481.12 100.68 480.94 105.65 C 479.75 105.27 478.65 104.74 477.65 104.06 C 477.58 99.51 478.08 94.97 478.57 90.44 C 479.97 77.46 482.77 64.69 485.70 51.98 Z" />
<path fill="#253a4a" d=" M 373.21 95.74 C 371.28 82.40 368.82 69.11 365.22 56.11 C 369.77 68.86 373.62 81.88 376.34 95.14 C 377.28 99.67 378.11 104.23 378.42 108.85 C 377.33 109.24 376.24 109.62 375.16 110.02 C 374.56 105.25 373.93 100.49 373.21 95.74 Z" />
<path fill="#253a4a" d=" M 417.29 57.14 C 419.97 67.92 421.82 78.89 423.10 89.92 C 423.99 96.87 424.29 103.89 424.41 110.90 C 423.56 111.12 421.85 111.57 421.00 111.79 C 420.93 104.52 420.82 97.25 420.38 89.99 C 419.91 79.00 419.21 67.99 417.29 57.14 Z" />
<path fill="#f8ce57" d=" M 224.98 59.83 C 229.02 58.15 233.71 58.71 238.02 58.74 C 255.22 59.86 271.73 65.63 287.40 72.52 C 305.53 80.63 322.69 90.79 339.15 101.87 C 341.15 103.48 343.71 102.15 345.93 101.89 C 349.37 112.15 352.18 122.59 355.06 133.02 C 356.11 132.33 357.16 131.65 358.22 130.97 C 355.44 120.78 351.79 110.86 347.65 101.15 C 356.13 99.17 364.62 97.17 373.21 95.74 C 373.93 100.49 374.56 105.25 375.16 110.02 C 376.24 109.62 377.33 109.24 378.42 108.85 C 378.11 104.23 377.28 99.67 376.34 95.14 C 381.91 94.20 387.49 93.35 393.10 92.68 C 393.24 91.48 393.40 90.28 393.56 89.09 C 393.61 89.93 393.70 91.61 393.75 92.45 C 402.62 91.58 411.49 90.59 420.38 89.99 C 420.82 97.25 420.93 104.52 421.00 111.79 C 421.85 111.57 423.56 111.12 424.41 110.90 C 424.29 103.89 423.99 96.87 423.10 89.92 C 441.57 88.82 460.11 89.19 478.57 90.44 C 478.08 94.97 477.58 99.51 477.65 104.06 C 478.65 104.74 479.75 105.27 480.94 105.65 C 481.12 100.68 481.38 95.71 481.76 90.74 C 492.00 91.67 502.20 92.92 512.37 94.47 C 510.35 99.83 508.48 105.26 507.06 110.81 C 508.13 111.00 509.31 112.25 510.38 111.75 C 512.17 106.20 513.54 100.52 515.35 94.97 C 524.20 96.55 532.97 98.56 541.78 100.38 C 536.94 111.33 532.63 122.54 529.53 134.12 C 530.28 134.63 531.80 135.65 532.55 136.17 C 536.17 123.81 539.40 111.32 543.79 99.19 C 561.98 87.66 580.63 76.63 600.74 68.75 C 616.05 62.80 632.31 57.98 648.90 58.74 C 650.91 59.13 654.18 58.53 654.87 61.11 C 667.59 93.28 671.44 129.76 661.43 163.21 C 665.50 167.58 669.66 171.88 673.42 176.54 C 695.22 202.75 708.02 236.04 710.09 270.02 C 710.98 286.70 710.35 303.43 709.44 320.10 C 709.17 326.74 707.94 333.34 708.08 340.00 C 686.67 339.94 665.26 340.09 643.86 340.25 C 641.50 324.48 634.81 309.49 624.93 297.00 C 615.25 284.62 603.43 273.12 588.39 267.68 C 569.16 260.45 548.27 260.51 528.04 261.21 C 501.01 262.35 474.07 265.54 446.99 265.40 C 419.61 265.81 392.32 263.12 365.03 261.37 C 350.01 261.07 334.89 260.39 319.99 262.68 C 308.93 264.39 297.86 267.41 288.27 273.34 C 279.88 278.27 272.95 285.27 266.67 292.61 C 255.50 305.50 247.11 321.27 244.70 338.28 C 223.42 338.32 202.14 338.41 180.87 338.50 C 177.72 320.51 176.73 302.20 176.66 283.96 C 176.59 273.53 177.44 263.09 179.21 252.80 C 184.40 222.20 199.03 193.38 220.33 170.85 C 207.22 135.06 210.58 94.68 224.98 59.83 Z" />
<path fill="#253a4a" d=" M 512.37 94.47 C 516.57 83.72 521.12 73.07 526.79 63.01 C 522.45 73.46 518.67 84.14 515.35 94.97 C 513.54 100.52 512.17 106.20 510.38 111.75 C 509.31 112.25 508.13 111.00 507.06 110.81 C 508.48 105.26 510.35 99.83 512.37 94.47 Z" />
<path fill="#253a4a" d=" M 339.04 82.94 C 342.17 88.89 345.02 94.97 347.65 101.15 C 351.79 110.86 355.44 120.78 358.22 130.97 C 357.16 131.65 356.11 132.33 355.06 133.02 C 352.18 122.59 349.37 112.15 345.93 101.89 C 343.89 95.48 341.38 89.24 339.04 82.94 Z" />
<path fill="#253a4a" d=" M 541.78 100.38 C 544.20 94.84 546.85 89.40 549.77 84.10 C 547.53 89.03 545.53 94.07 543.79 99.19 C 539.40 111.32 536.17 123.81 532.55 136.17 C 531.80 135.65 530.28 134.63 529.53 134.12 C 532.63 122.54 536.94 111.33 541.78 100.38 Z" />
<path fill="#253a4a" d=" M 394.26 99.03 C 394.12 97.31 394.28 95.59 394.48 93.88 C 396.66 109.51 398.63 125.23 398.01 141.04 C 398.49 143.25 395.66 142.76 394.46 143.31 C 395.07 128.56 395.43 113.76 394.26 99.03 Z" />
<path fill="#253a4a" d=" M 461.32 94.11 C 464.63 103.34 465.02 113.26 465.67 122.95 C 465.59 124.46 466.32 126.74 464.18 127.07 C 463.20 116.10 463.67 104.94 461.32 94.11 Z" />
<path fill="#253a4a" d=" M 424.18 147.25 C 422.63 137.41 420.75 127.62 418.32 117.96 C 422.53 127.16 424.35 137.23 426.04 147.15 C 425.57 147.17 424.65 147.22 424.18 147.25 Z" />
<path fill="#253a4a" d=" M 477.33 146.33 C 479.71 136.41 483.62 126.76 488.88 118.01 C 485.80 126.30 482.49 134.51 480.01 143.01 C 479.38 144.29 479.44 146.59 477.33 146.33 Z" />
<path fill="#d2a93f" d=" M 319.99 262.68 C 334.89 260.39 350.01 261.07 365.03 261.37 C 392.32 263.12 419.61 265.81 446.99 265.40 C 474.07 265.54 501.01 262.35 528.04 261.21 C 548.27 260.51 569.16 260.45 588.39 267.68 C 603.43 273.12 615.25 284.62 624.93 297.00 C 634.81 309.49 641.50 324.48 643.86 340.25 C 631.52 340.32 619.18 340.47 606.84 340.47 C 605.76 338.48 604.48 336.51 602.19 335.84 C 600.00 335.66 597.81 335.70 595.63 335.80 C 592.30 320.15 583.87 305.70 572.14 294.86 C 559.57 283.16 543.10 275.74 526.00 274.12 C 506.19 272.06 485.70 277.83 469.90 289.96 C 459.85 297.39 452.25 307.53 446.30 318.42 C 439.89 305.68 430.31 294.52 418.32 286.74 C 401.64 275.68 380.69 271.44 361.00 274.90 C 348.16 277.10 335.92 282.57 325.65 290.57 C 322.69 292.93 319.44 295.18 317.70 298.67 C 316.72 299.70 315.68 300.68 314.63 301.65 C 313.74 302.39 312.86 303.13 312.14 304.02 C 305.09 313.08 299.96 323.61 297.36 334.80 C 296.43 332.34 292.91 333.14 290.80 333.02 C 288.86 333.91 286.67 334.87 285.93 337.07 C 283.77 341.06 285.94 345.44 287.05 349.39 C 284.21 346.30 283.87 342.04 284.40 338.07 C 271.17 338.24 257.93 338.16 244.70 338.28 C 247.11 321.27 255.50 305.50 266.67 292.61 C 272.95 285.27 279.88 278.27 288.27 273.34 C 297.86 267.41 308.93 264.39 319.99 262.68 Z" />
<path fill="#253a4a" d=" M 469.90 289.96 C 485.70 277.83 506.19 272.06 526.00 274.12 C 543.10 275.74 559.57 283.16 572.14 294.86 C 583.87 305.70 592.30 320.15 595.63 335.80 C 595.75 336.36 596.01 337.49 596.13 338.05 L 596.49 339.47 C 596.14 339.60 595.46 339.84 595.12 339.96 C 591.64 322.41 582.51 305.82 568.98 294.00 C 557.59 284.01 543.06 278.04 528.17 275.77 C 515.38 273.45 502.20 275.85 490.09 280.16 C 477.46 284.94 465.63 292.81 457.57 303.76 C 466.77 295.89 476.52 288.34 487.90 283.86 C 506.63 275.83 528.61 276.54 547.10 284.90 C 570.03 295.31 586.11 317.00 594.42 340.26 C 594.78 341.37 595.12 342.48 595.49 343.60 C 595.98 343.48 596.96 343.24 597.45 343.12 C 597.19 350.38 598.21 357.77 596.42 364.90 L 596.20 366.17 C 596.12 366.64 595.98 367.56 595.91 368.03 C 590.92 397.53 566.95 422.27 538.09 429.48 C 518.42 434.63 496.76 431.94 479.08 421.83 C 465.06 413.87 453.39 401.66 446.52 387.04 C 440.58 400.88 429.63 412.07 417.09 420.14 C 398.39 431.80 374.79 435.53 353.51 429.61 C 341.02 426.40 329.94 419.19 320.43 410.66 C 307.82 398.97 299.19 383.06 296.37 366.09 C 296.24 365.27 295.98 363.63 295.85 362.81 C 294.63 353.98 292.90 344.49 296.90 336.09 L 297.36 334.80 C 299.96 323.61 305.09 313.08 312.14 304.02 C 312.86 303.13 313.74 302.39 314.63 301.65 C 314.95 301.57 315.61 301.39 315.94 301.31 C 324.13 294.70 332.84 288.58 342.66 284.60 C 359.83 277.42 379.82 275.01 397.55 281.69 C 416.77 288.83 432.33 303.62 443.37 320.60 C 443.86 321.71 444.68 322.12 445.85 321.84 C 446.06 320.02 445.07 318.43 444.20 316.93 C 435.06 301.71 421.53 288.89 405.17 281.75 C 391.96 276.06 377.10 273.70 362.87 276.30 C 346.09 279.06 329.46 286.06 317.70 298.67 C 319.44 295.18 322.69 292.93 325.65 290.57 C 335.92 282.57 348.16 277.10 361.00 274.90 C 380.69 271.44 401.64 275.68 418.32 286.74 C 430.31 294.52 439.89 305.68 446.30 318.42 C 452.25 307.53 459.85 297.39 469.90 289.96 Z" />
<path fill="#ffffff" d=" M 362.87 276.30 C 377.10 273.70 391.96 276.06 405.17 281.75 C 421.53 288.89 435.06 301.71 444.20 316.93 C 445.07 318.43 446.06 320.02 445.85 321.84 C 444.68 322.12 443.86 321.71 443.37 320.60 C 432.33 303.62 416.77 288.83 397.55 281.69 C 379.82 275.01 359.83 277.42 342.66 284.60 C 332.84 288.58 324.13 294.70 315.94 301.31 C 315.61 301.39 314.95 301.57 314.63 301.65 C 315.68 300.68 316.72 299.70 317.70 298.67 C 329.46 286.06 346.09 279.06 362.87 276.30 Z" />
<path fill="#ffffff" d=" M 490.09 280.16 C 502.20 275.85 515.38 273.45 528.17 275.77 C 543.06 278.04 557.59 284.01 568.98 294.00 C 582.51 305.82 591.64 322.41 595.12 339.96 L 594.42 340.26 C 586.11 317.00 570.03 295.31 547.10 284.90 C 528.61 276.54 506.63 275.83 487.90 283.86 C 476.52 288.34 466.77 295.89 457.57 303.76 C 465.63 292.81 477.46 284.94 490.09 280.16 Z" />
<path fill="#d2a93f" d=" M 364.46 293.65 C 374.30 292.64 384.57 292.49 394.04 295.80 C 409.24 300.89 422.20 312.28 429.15 326.74 C 435.99 340.68 437.05 357.32 432.02 372.02 C 426.71 387.96 414.36 401.31 398.97 408.02 C 388.40 412.82 376.48 413.83 365.06 412.35 C 349.46 409.88 335.04 400.99 325.77 388.22 C 315.30 374.00 311.54 355.01 316.11 337.92 C 321.72 315.42 341.52 297.22 364.46 293.65 Z" />
<path fill="#d2a93f" d=" M 474.89 310.90 C 484.35 301.06 497.34 294.69 510.92 293.28 C 515.64 293.08 520.38 293.06 525.11 293.22 C 541.88 294.69 557.45 304.25 567.25 317.80 C 575.20 328.75 579.25 342.47 578.52 355.99 C 577.74 372.14 570.07 387.82 557.75 398.30 C 557.66 398.39 557.48 398.56 557.39 398.64 C 544.75 409.55 527.46 414.80 510.89 412.71 C 491.88 410.53 474.33 398.69 465.16 381.91 C 462.43 377.29 461.01 372.09 458.96 367.18 L 458.89 366.57 C 458.61 362.70 457.89 358.87 457.66 355.00 C 457.08 338.78 463.35 322.36 474.89 310.90 Z" />
<path fill="#d6d4cb" d=" M 365.43 296.63 C 378.41 294.64 392.10 296.91 403.45 303.64 C 417.48 311.70 427.70 326.03 430.77 341.91 C 433.64 355.91 430.84 370.96 423.15 383.01 C 415.39 395.66 402.39 405.01 387.90 408.25 C 375.05 411.30 361.12 409.80 349.30 403.85 C 335.49 397.16 324.69 384.56 320.17 369.90 C 315.71 356.07 316.91 340.49 323.46 327.52 C 331.48 311.35 347.53 299.34 365.43 296.63 Z" />
<path fill="#d6d4cb" d=" M 512.20 296.28 C 529.03 294.33 546.55 300.56 558.47 312.58 C 567.06 320.96 572.62 332.22 574.62 344.01 C 576.72 357.54 573.89 371.86 566.37 383.35 C 558.23 396.54 544.33 405.85 529.17 408.81 C 514.32 411.57 498.41 408.52 485.93 399.93 C 473.71 391.71 464.97 378.54 462.08 364.11 C 459.50 352.14 461.21 339.40 466.45 328.37 C 474.83 310.80 492.68 297.86 512.20 296.28 Z" />
<path fill="#253a4a" d=" M 370.46 332.72 C 375.82 331.74 381.60 332.71 386.13 335.83 C 393.33 340.50 397.06 350.10 394.52 358.36 C 392.19 367.27 383.25 373.77 374.07 373.39 C 363.73 373.29 354.38 364.33 354.17 353.94 C 353.36 344.08 360.84 334.64 370.46 332.72 Z" />
<path fill="#253a4a" d=" M 285.93 337.07 C 286.67 334.87 288.86 333.91 290.80 333.02 C 288.41 335.75 286.35 339.21 286.75 342.98 C 286.88 345.21 288.21 347.09 288.95 349.14 C 288.07 352.01 286.09 354.73 286.52 357.88 C 286.97 360.49 288.21 362.86 289.07 365.34 C 284.62 363.67 285.28 358.25 284.42 354.49 C 284.27 356.42 284.24 358.36 284.32 360.30 C 270.88 360.28 257.43 360.48 243.99 360.55 C 224.54 360.73 205.09 360.73 185.64 361.01 C 184.98 358.43 183.46 356.24 182.22 353.93 C 182.18 351.88 182.62 349.85 182.51 347.80 C 181.40 346.71 179.56 345.83 179.75 343.99 C 180.14 342.16 180.80 340.38 180.87 338.50 C 202.14 338.41 223.42 338.32 244.70 338.28 C 257.93 338.16 271.17 338.24 284.40 338.07 C 283.87 342.04 284.21 346.30 287.05 349.39 C 285.94 345.44 283.77 341.06 285.93 337.07 Z" />
<path fill="#d6d4cb" d=" M 290.80 333.02 C 292.91 333.14 296.43 332.34 297.36 334.80 L 296.90 336.09 C 296.15 336.12 294.64 336.18 293.89 336.21 C 292.32 344.90 291.68 353.89 293.12 362.65 C 293.80 362.69 295.17 362.77 295.85 362.81 C 295.98 363.63 296.24 365.27 296.37 366.09 C 293.41 365.98 290.36 366.16 287.51 365.26 C 285.37 364.58 284.91 362.16 284.32 360.30 C 284.24 358.36 284.27 356.42 284.42 354.49 C 285.28 358.25 284.62 363.67 289.07 365.34 C 288.21 362.86 286.97 360.49 286.52 357.88 C 286.09 354.73 288.07 352.01 288.95 349.14 C 288.21 347.09 286.88 345.21 286.75 342.98 C 286.35 339.21 288.41 335.75 290.80 333.02 Z" />
<path fill="#253a4a" d=" M 511.30 333.48 C 518.34 330.99 526.71 332.70 532.13 337.87 C 536.83 342.15 539.29 348.71 538.58 355.03 C 537.85 364.24 530.01 372.07 520.91 373.20 C 510.91 374.78 500.50 367.83 498.18 357.97 C 495.35 348.02 501.46 336.66 511.30 333.48 Z" />
<path fill="#7eb5db" d=" M 293.89 336.21 C 294.64 336.18 296.15 336.12 296.90 336.09 C 292.90 344.49 294.63 353.98 295.85 362.81 C 295.17 362.77 293.80 362.69 293.12 362.65 C 291.68 353.89 292.32 344.90 293.89 336.21 Z" />
<path fill="#ffffff" d=" M 595.63 335.80 C 597.81 335.70 600.00 335.66 602.19 335.84 C 603.27 338.24 604.72 340.49 605.40 343.06 C 606.04 346.20 604.22 349.06 602.85 351.73 C 604.26 354.26 605.94 356.95 605.67 359.99 C 605.42 362.63 603.92 364.91 602.83 367.27 L 604.15 367.25 C 601.51 368.25 598.67 368.13 595.91 368.03 C 595.98 367.56 596.12 366.64 596.20 366.17 C 598.34 365.94 601.20 366.83 602.44 364.48 C 605.59 360.73 603.53 355.67 601.44 351.96 C 603.46 348.28 605.70 343.30 602.37 339.65 C 601.08 337.32 598.29 338.17 596.13 338.05 C 596.01 337.49 595.75 336.36 595.63 335.80 Z" />
<path fill="#253a4a" d=" M 602.19 335.84 C 604.48 336.51 605.76 338.48 606.84 340.47 C 619.18 340.47 631.52 340.32 643.86 340.25 C 665.26 340.09 686.67 339.94 708.08 340.00 C 708.56 343.53 710.83 347.85 706.94 350.25 C 707.40 353.51 709.42 357.85 705.45 359.73 C 705.01 360.88 704.60 362.03 704.20 363.19 C 684.11 362.94 664.03 363.01 643.94 363.00 C 631.65 363.00 619.35 362.75 607.06 362.82 C 606.10 364.26 605.68 366.30 604.15 367.25 L 602.83 367.27 C 603.92 364.91 605.42 362.63 605.67 359.99 C 605.94 356.95 604.26 354.26 602.85 351.73 C 604.22 349.06 606.04 346.20 605.40 343.06 C 604.72 340.49 603.27 338.24 602.19 335.84 Z" />
<path fill="#d6d4cb" d=" M 596.13 338.05 C 598.29 338.17 601.08 337.32 602.37 339.65 C 605.70 343.30 603.46 348.28 601.44 351.96 C 603.53 355.67 605.59 360.73 602.44 364.48 C 601.20 366.83 598.34 365.94 596.20 366.17 L 596.42 364.90 C 597.11 364.95 598.47 365.04 599.16 365.09 C 601.68 356.54 599.23 347.71 598.84 339.05 C 598.25 339.16 597.07 339.37 596.49 339.47 L 596.13 338.05 Z" />
<path fill="#7eb5db" d=" M 596.49 339.47 C 597.07 339.37 598.25 339.16 598.84 339.05 C 599.23 347.71 601.68 356.54 599.16 365.09 C 598.47 365.04 597.11 364.95 596.42 364.90 C 598.21 357.77 597.19 350.38 597.45 343.12 C 596.96 343.24 595.98 343.48 595.49 343.60 C 595.12 342.48 594.78 341.37 594.42 340.26 L 595.12 339.96 C 595.46 339.84 596.14 339.60 596.49 339.47 Z" />
<path fill="#d6d4cb" d=" M 530.99 345.31 C 532.52 345.35 534.05 345.40 535.59 345.46 C 535.33 347.26 535.11 349.08 534.69 350.86 C 532.21 350.29 531.89 347.28 530.99 345.31 Z" />
<path fill="#d6d4cb" d=" M 387.25 346.49 C 388.75 346.39 390.26 346.27 391.77 346.13 C 391.64 348.03 391.51 349.94 391.37 351.84 C 388.87 351.29 388.45 348.33 387.25 346.49 Z" />
<path fill="#d6d4cb" d=" M 286.41 350.31 C 288.10 350.48 286.50 354.03 285.12 353.72 C 284.39 352.56 285.39 350.96 286.41 350.31 Z" />
<path fill="#7eb5db" d=" M 531.13 352.26 C 532.71 351.16 533.66 353.98 532.55 354.93 C 530.97 356.25 529.77 353.15 531.13 352.26 Z" />
<path fill="#7eb5db" d=" M 387.46 353.22 C 389.03 351.96 390.18 354.97 388.89 355.90 C 387.30 357.03 386.29 354.15 387.46 353.22 Z" />
<path fill="#d2a93f" d=" M 243.99 360.55 C 257.43 360.48 270.88 360.28 284.32 360.30 C 284.91 362.16 285.37 364.58 287.51 365.26 C 290.36 366.16 293.41 365.98 296.37 366.09 C 299.19 383.06 307.82 398.97 320.43 410.66 C 329.94 419.19 341.02 426.40 353.51 429.61 C 374.79 435.53 398.39 431.80 417.09 420.14 C 429.63 412.07 440.58 400.88 446.52 387.04 C 453.39 401.66 465.06 413.87 479.08 421.83 C 496.76 431.94 518.42 434.63 538.09 429.48 C 566.95 422.27 590.92 397.53 595.91 368.03 C 598.67 368.13 601.51 368.25 604.15 367.25 C 605.68 366.30 606.10 364.26 607.06 362.82 C 619.35 362.75 631.65 363.00 643.94 363.00 C 642.55 381.83 638.98 400.99 629.62 417.61 C 620.26 434.77 604.56 447.99 586.76 455.77 C 555.77 469.39 521.34 470.93 488.03 472.62 C 440.86 472.84 393.21 474.57 346.68 465.40 C 325.60 461.18 304.59 454.51 286.72 442.24 C 270.25 431.24 257.43 414.83 250.97 396.08 C 246.89 384.65 244.92 372.61 243.99 360.55 Z" />
<path fill="#f8ce57" d=" M 185.64 361.01 C 205.09 360.73 224.54 360.73 243.99 360.55 C 244.92 372.61 246.89 384.65 250.97 396.08 C 257.43 414.83 270.25 431.24 286.72 442.24 C 304.59 454.51 325.60 461.18 346.68 465.40 C 393.21 474.57 440.86 472.84 488.03 472.62 C 521.34 470.93 555.77 469.39 586.76 455.77 C 604.56 447.99 620.26 434.77 629.62 417.61 C 638.98 400.99 642.55 381.83 643.94 363.00 C 664.03 363.01 684.11 362.94 704.20 363.19 C 702.78 367.25 701.91 371.47 700.87 375.64 C 766.10 373.51 831.83 376.09 896.00 388.76 L 896.00 389.76 C 895.80 390.34 895.41 391.50 895.21 392.07 C 830.98 379.56 765.20 376.69 699.92 379.23 C 698.08 384.51 696.29 389.82 694.23 395.02 C 741.06 396.70 787.87 400.99 833.98 409.45 C 854.45 413.35 874.92 417.58 894.89 423.61 C 894.57 424.24 893.94 425.50 893.62 426.13 C 890.06 426.22 886.67 424.53 883.20 423.80 C 821.04 407.78 756.89 400.49 692.82 398.49 C 685.49 414.55 675.40 429.46 662.32 441.39 C 639.82 462.16 610.72 474.13 581.39 481.60 C 561.50 486.72 541.13 489.60 520.75 491.96 C 528.61 498.13 536.11 505.00 541.34 513.62 C 548.88 525.38 552.91 539.11 554.49 552.91 C 555.62 562.56 555.26 572.29 555.32 581.99 C 555.29 610.91 555.36 639.82 555.28 668.74 C 550.42 671.77 544.73 673.27 539.00 673.04 C 530.11 672.89 520.82 672.79 512.50 669.30 C 513.20 648.89 512.61 628.44 512.81 608.01 C 512.49 596.38 513.95 584.55 511.18 573.12 C 509.44 565.15 505.93 557.20 499.43 552.00 C 499.55 561.31 499.20 570.64 499.62 579.96 C 495.78 580.59 491.90 580.88 488.02 580.79 C 485.46 580.88 482.61 580.39 480.43 582.07 C 480.23 581.59 479.82 580.65 479.61 580.17 C 479.68 579.37 479.82 577.75 479.89 576.95 C 477.23 576.11 479.29 572.88 478.75 570.97 C 477.71 559.29 477.35 547.57 476.46 535.88 C 476.16 532.57 476.44 529.27 476.86 525.99 C 477.37 526.15 478.38 526.45 478.89 526.61 C 479.13 525.59 479.37 524.57 479.62 523.57 C 480.43 522.32 481.24 521.07 482.00 519.79 L 482.37 519.04 C 483.06 515.95 485.16 513.04 484.34 509.76 C 484.69 509.57 485.38 509.20 485.73 509.01 C 485.10 506.15 487.31 503.57 486.27 500.78 C 486.57 500.37 487.18 499.55 487.49 499.14 C 487.45 496.53 487.50 493.93 487.52 491.34 C 485.21 491.35 482.90 491.37 480.60 491.40 C 480.47 494.89 480.53 498.37 480.63 501.86 C 479.81 503.15 479.37 504.59 479.29 506.12 C 478.16 509.62 476.22 512.84 475.54 516.49 C 475.05 516.86 474.07 517.58 473.58 517.95 C 473.62 518.59 473.70 519.89 473.74 520.54 C 472.93 521.05 472.11 521.57 471.30 522.08 C 458.42 527.18 443.90 528.35 430.33 525.53 C 428.88 525.28 427.42 525.54 425.98 525.71 C 425.51 524.12 424.74 522.67 423.62 521.45 C 422.05 518.13 420.60 514.75 418.39 511.79 C 418.56 511.32 418.91 510.38 419.08 509.91 C 418.64 509.56 417.76 508.88 417.32 508.54 C 417.25 507.07 417.18 505.60 417.11 504.15 C 416.91 503.56 416.53 502.39 416.34 501.80 C 416.24 501.13 416.04 499.77 415.94 499.10 C 415.91 498.35 415.85 496.85 415.82 496.11 C 415.75 495.45 415.60 494.13 415.53 493.47 L 415.51 493.14 L 415.44 493.12 C 413.49 492.41 411.42 492.31 409.48 493.09 L 409.42 493.10 L 409.42 493.44 C 409.13 498.66 409.72 503.86 410.91 508.95 C 411.46 511.31 412.05 513.67 412.72 516.00 L 413.04 516.78 C 414.92 520.82 416.22 525.36 419.55 528.51 C 420.23 530.93 420.61 533.43 420.41 535.95 C 420.13 540.02 421.02 544.20 419.71 548.17 C 419.77 548.52 419.89 549.23 419.95 549.59 L 420.73 549.62 C 419.21 551.12 418.96 552.69 420.66 554.16 C 420.31 554.36 419.60 554.75 419.25 554.95 C 417.46 560.27 419.53 566.01 417.70 571.27 C 417.97 571.71 418.51 572.59 418.78 573.03 C 418.17 573.70 417.57 574.38 416.98 575.06 C 417.17 575.97 417.36 576.90 417.56 577.83 C 417.04 578.82 416.53 579.83 416.15 580.90 C 409.62 581.63 402.93 582.48 396.46 580.86 C 396.69 570.86 396.54 560.86 396.52 550.87 C 388.67 556.71 385.54 566.62 384.08 575.90 C 382.42 585.53 383.42 595.31 383.26 605.02 C 383.25 621.68 383.26 638.34 383.25 655.00 C 383.26 659.35 383.07 663.72 383.59 668.06 C 378.78 671.36 372.63 671.27 367.07 672.01 C 358.20 672.71 348.10 673.67 340.51 668.07 C 340.82 645.58 340.77 623.07 340.53 600.58 C 317.12 605.75 292.28 607.52 268.97 600.87 C 248.83 595.24 230.67 582.23 219.72 564.30 C 214.85 556.88 212.58 548.20 208.67 540.30 C 201.46 525.24 191.77 510.96 178.47 500.65 C 171.52 495.74 163.46 491.66 158.79 484.26 C 156.99 481.75 157.67 477.94 160.57 476.64 C 166.87 473.51 174.31 473.52 181.10 474.73 C 198.52 477.86 213.72 488.71 224.69 502.30 C 230.61 509.26 234.34 517.77 240.21 524.79 C 250.58 538.11 265.43 548.18 282.11 551.50 C 302.73 555.59 324.43 551.15 343.09 541.98 C 345.61 533.07 348.28 524.06 353.17 516.09 C 358.61 506.37 366.69 498.51 375.48 491.81 C 338.58 487.35 301.39 479.90 268.00 462.96 C 245.20 451.46 224.64 434.99 209.94 413.98 C 206.34 409.04 203.40 403.68 200.16 398.52 C 138.68 400.76 77.14 407.63 17.39 422.64 C 12.25 423.90 7.21 425.55 1.99 426.50 C 1.92 425.67 1.78 424.01 1.72 423.18 C 65.56 405.73 131.67 397.62 197.72 395.25 C 198.45 394.12 197.38 392.99 197.06 391.92 C 195.03 387.77 193.19 383.53 191.62 379.18 C 127.80 376.68 63.51 379.91 0.73 392.08 C 0.54 391.50 0.18 390.33 0.00 389.75 L 0.00 388.34 C 1.33 388.29 2.66 388.18 3.99 388.01 C 65.23 376.24 127.89 373.75 190.11 375.45 C 188.51 370.67 187.03 365.85 185.64 361.01 Z" />
<path fill="#ffffff" d=" M 458.50 370.96 C 458.24 369.48 458.58 368.01 458.89 366.57 L 458.96 367.18 C 459.70 377.11 465.00 386.21 471.29 393.71 C 480.07 403.84 492.50 410.28 505.45 413.28 C 521.17 416.46 538.24 413.68 551.70 404.79 C 553.97 403.18 556.73 401.88 558.02 399.27 C 557.87 399.11 557.55 398.80 557.39 398.64 C 557.48 398.56 557.66 398.39 557.75 398.30 C 558.55 398.41 560.15 398.63 560.95 398.74 C 560.12 398.93 559.31 399.13 558.50 399.34 C 557.50 401.94 554.88 403.30 552.86 405.00 C 541.30 413.80 526.57 418.38 512.05 417.35 C 499.17 416.43 486.18 412.22 476.25 403.75 C 466.52 395.51 460.51 383.45 458.50 370.96 Z" />
<path fill="#253a4a" d=" M 458.96 367.18 C 461.01 372.09 462.43 377.29 465.16 381.91 C 474.33 398.69 491.88 410.53 510.89 412.71 C 527.46 414.80 544.75 409.55 557.39 398.64 C 557.55 398.80 557.87 399.11 558.02 399.27 C 556.73 401.88 553.97 403.18 551.70 404.79 C 538.24 413.68 521.17 416.46 505.45 413.28 C 492.50 410.28 480.07 403.84 471.29 393.71 C 465.00 386.21 459.70 377.11 458.96 367.18 Z" />
<path fill="#ffffff" d=" M 315.07 369.27 L 315.58 369.23 C 320.84 391.63 340.82 408.79 363.05 413.14 C 378.31 415.41 394.52 412.90 407.78 404.79 C 411.11 402.87 414.04 400.36 417.16 398.15 C 404.85 410.95 386.88 418.52 369.04 417.39 C 357.11 416.62 345.19 412.70 335.76 405.24 C 324.65 396.43 317.46 383.16 315.07 369.27 Z" />
<path fill="#ffffff" d=" M 0.73 392.08 C 63.51 379.91 127.80 376.68 191.62 379.18 C 193.19 383.53 195.03 387.77 197.06 391.92 C 197.38 392.99 198.45 394.12 197.72 395.25 C 131.67 397.62 65.56 405.73 1.72 423.18 C 1.78 424.01 1.92 425.67 1.99 426.50 C 7.21 425.55 12.25 423.90 17.39 422.64 C 77.14 407.63 138.68 400.76 200.16 398.52 C 203.40 403.68 206.34 409.04 209.94 413.98 C 224.64 434.99 245.20 451.46 268.00 462.96 C 301.39 479.90 338.58 487.35 375.48 491.81 C 366.69 498.51 358.61 506.37 353.17 516.09 C 348.28 524.06 345.61 533.07 343.09 541.98 C 324.43 551.15 302.73 555.59 282.11 551.50 C 265.43 548.18 250.58 538.11 240.21 524.79 C 234.34 517.77 230.61 509.26 224.69 502.30 C 213.72 488.71 198.52 477.86 181.10 474.73 C 174.31 473.52 166.87 473.51 160.57 476.64 C 157.67 477.94 156.99 481.75 158.79 484.26 C 163.46 491.66 171.52 495.74 178.47 500.65 C 191.77 510.96 201.46 525.24 208.67 540.30 C 212.58 548.20 214.85 556.88 219.72 564.30 C 230.67 582.23 248.83 595.24 268.97 600.87 C 292.28 607.52 317.12 605.75 340.53 600.58 C 340.77 623.07 340.82 645.58 340.51 668.07 C 339.72 668.31 338.94 668.56 338.17 668.82 C 339.10 671.48 339.30 674.31 339.03 677.11 C 316.13 681.31 293.32 686.49 271.39 694.40 C 256.36 699.87 241.53 706.27 228.21 715.21 C 217.63 722.39 207.37 731.26 202.43 743.37 C 198.68 752.21 199.41 762.58 203.84 771.03 C 209.69 782.38 219.89 790.67 230.40 797.54 C 243.63 805.86 258.05 812.15 272.76 817.37 C 295.09 825.22 318.24 830.47 341.51 834.69 C 355.32 836.96 369.21 838.93 383.16 840.15 C 386.03 840.39 388.89 840.66 391.76 840.93 C 427.45 843.97 463.41 844.36 499.14 841.78 C 503.44 841.40 507.74 841.15 512.05 840.89 C 526.15 839.69 540.25 838.19 554.19 835.72 C 584.57 830.99 614.75 823.94 643.32 812.43 C 659.24 805.65 675.10 797.78 687.80 785.79 C 696.04 778.05 702.92 767.69 703.00 756.02 C 703.26 745.49 697.68 735.84 690.69 728.37 C 680.28 717.50 667.10 709.77 653.59 703.40 C 622.79 689.20 589.49 681.22 556.11 675.93 C 555.94 673.61 556.55 671.35 557.05 669.12 C 556.61 669.03 555.72 668.84 555.28 668.74 C 555.36 639.82 555.29 610.91 555.32 581.99 C 555.26 572.29 555.62 562.56 554.49 552.91 C 552.91 539.11 548.88 525.38 541.34 513.62 C 536.11 505.00 528.61 498.13 520.75 491.96 C 541.13 489.60 561.50 486.72 581.39 481.60 C 610.72 474.13 639.82 462.16 662.32 441.39 C 675.40 429.46 685.49 414.55 692.82 398.49 C 756.89 400.49 821.04 407.78 883.20 423.80 C 886.67 424.53 890.06 426.22 893.62 426.13 C 893.94 425.50 894.57 424.24 894.89 423.61 C 874.92 417.58 854.45 413.35 833.98 409.45 C 787.87 400.99 741.06 396.70 694.23 395.02 C 696.29 389.82 698.08 384.51 699.92 379.23 C 765.20 376.69 830.98 379.56 895.21 392.07 C 895.41 391.50 895.80 390.34 896.00 389.76 L 896.00 896.00 L 0.00 896.00 L 0.00 389.75 C 0.18 390.33 0.54 391.50 0.73 392.08 Z" />
<path fill="#d6d4cb" d=" M 428.83 421.96 C 433.39 420.35 438.31 421.06 443.03 421.16 C 450.38 421.35 457.60 423.82 463.68 427.92 C 463.70 428.71 463.73 430.30 463.75 431.10 C 458.25 429.87 452.96 427.55 447.24 427.56 C 447.01 429.11 446.80 430.67 446.60 432.23 L 445.46 431.22 L 445.53 431.09 C 445.16 429.69 444.80 428.28 444.48 426.88 C 439.57 426.32 434.65 426.93 429.84 427.93 C 429.72 429.44 429.60 430.94 429.47 432.45 C 428.07 429.13 428.91 425.44 428.83 421.96 Z" />
<path fill="#d6d4cb" d=" M 411.38 428.24 C 416.24 424.65 422.46 423.61 428.17 421.99 C 428.15 424.00 428.14 426.01 428.17 428.03 C 422.49 428.91 417.01 430.66 411.45 432.04 C 411.38 430.77 411.35 429.50 411.38 428.24 Z" />
<path fill="#253a4a" d=" M 428.17 421.99 L 428.83 421.96 C 428.91 425.44 428.07 429.13 429.47 432.45 C 433.68 434.51 438.52 434.14 443.06 433.83 C 444.40 433.78 444.66 432.04 445.46 431.22 L 446.60 432.23 C 449.76 436.22 455.52 436.10 460.14 435.91 C 462.74 435.89 463.72 433.33 463.75 431.10 C 463.73 430.30 463.70 428.71 463.68 427.92 C 463.90 428.11 464.35 428.48 464.58 428.67 C 464.95 431.11 464.14 434.09 466.10 436.01 C 469.33 437.19 472.86 437.01 476.25 437.36 C 479.41 438.31 481.13 441.73 483.83 443.56 C 479.49 441.68 474.61 442.62 470.05 442.93 C 469.88 444.88 469.73 446.83 469.61 448.79 C 462.93 448.77 456.25 448.52 449.58 448.39 L 449.53 448.09 C 449.00 446.01 449.34 443.15 447.03 442.11 C 442.55 439.77 437.12 440.35 432.39 441.52 C 429.79 442.09 430.89 445.34 430.63 447.24 C 434.41 447.41 438.20 447.58 441.99 447.82 C 436.34 447.72 430.70 447.46 425.06 447.18 L 425.55 447.19 C 427.20 447.22 428.85 447.20 430.51 447.20 C 430.19 446.01 429.84 444.84 429.45 443.69 C 423.91 441.39 417.70 441.76 411.84 442.10 C 411.65 443.54 411.47 444.99 411.29 446.44 C 414.45 446.48 417.64 446.06 420.77 446.60 C 415.88 447.15 410.93 446.38 406.04 446.05 C 407.55 446.11 409.06 446.16 410.58 446.21 C 410.16 444.86 410.95 442.42 409.12 441.96 C 403.94 440.33 398.41 440.61 393.05 440.59 C 394.31 439.69 395.54 438.74 396.77 437.79 C 396.89 437.79 397.14 437.79 397.26 437.80 C 402.01 438.07 406.77 437.47 411.27 435.90 C 411.14 433.46 410.90 431.03 410.60 428.61 L 410.58 428.39 C 410.78 428.35 411.18 428.27 411.38 428.24 C 411.35 429.50 411.38 430.77 411.45 432.04 C 411.65 433.33 411.88 434.62 412.14 435.90 C 417.33 435.71 422.64 435.34 427.58 433.62 C 428.68 432.04 427.95 429.85 428.17 428.03 C 428.14 426.01 428.15 424.00 428.17 421.99 Z" />
<path fill="#ffffff" d=" M 429.84 427.93 C 434.65 426.93 439.57 426.32 444.48 426.88 C 444.80 428.28 445.16 429.69 445.53 431.09 L 445.46 431.22 C 444.66 432.04 444.40 433.78 443.06 433.83 C 438.52 434.14 433.68 434.51 429.47 432.45 C 429.60 430.94 429.72 429.44 429.84 427.93 Z" />
<path fill="#ffffff" d=" M 411.45 432.04 C 417.01 430.66 422.49 428.91 428.17 428.03 C 427.95 429.85 428.68 432.04 427.58 433.62 C 422.64 435.34 417.33 435.71 412.14 435.90 C 411.88 434.62 411.65 433.33 411.45 432.04 Z" />
<path fill="#ffffff" d=" M 447.24 427.56 C 452.96 427.55 458.25 429.87 463.75 431.10 C 463.72 433.33 462.74 435.89 460.14 435.91 C 455.52 436.10 449.76 436.22 446.60 432.23 C 446.80 430.67 447.01 429.11 447.24 427.56 Z" />
<path fill="#d6d4cb" d=" M 397.26 437.80 C 400.49 433.43 405.91 431.16 410.60 428.61 C 410.90 431.03 411.14 433.46 411.27 435.90 C 406.77 437.47 402.01 438.07 397.26 437.80 Z" />
<path fill="#ffffff" d=" M 464.58 428.67 C 468.88 430.86 473.23 433.51 476.25 437.36 C 472.86 437.01 469.33 437.19 466.10 436.01 C 464.14 434.09 464.95 431.11 464.58 428.67 Z" />
<path fill="#ffffff" d=" M 392.10 444.87 C 391.03 443.37 392.43 441.90 393.05 440.59 C 398.41 440.61 403.94 440.33 409.12 441.96 C 410.95 442.42 410.16 444.86 410.58 446.21 C 409.06 446.16 407.55 446.11 406.04 446.05 C 401.40 445.49 396.70 445.64 392.10 444.87 Z" />
<path fill="#ffffff" d=" M 432.39 441.52 C 437.12 440.35 442.55 439.77 447.03 442.11 C 449.34 443.15 449.00 446.01 449.53 448.09 C 447.01 448.05 444.49 447.98 441.99 447.82 C 438.20 447.58 434.41 447.41 430.63 447.24 C 430.89 445.34 429.79 442.09 432.39 441.52 Z" />
<path fill="#ffffff" d=" M 411.84 442.10 C 417.70 441.76 423.91 441.39 429.45 443.69 C 429.84 444.84 430.19 446.01 430.51 447.20 C 428.85 447.20 427.20 447.22 425.55 447.19 C 423.94 447.08 422.35 446.88 420.77 446.60 C 417.64 446.06 414.45 446.48 411.29 446.44 C 411.47 444.99 411.65 443.54 411.84 442.10 Z" />
<path fill="#ffffff" d=" M 450.55 442.65 C 455.59 441.43 461.20 441.12 466.08 443.16 C 468.48 443.88 467.69 446.82 468.05 448.69 C 461.99 448.49 455.92 448.30 449.86 448.22 C 450.04 446.43 449.01 443.99 450.55 442.65 Z" />
<path fill="#ffffff" d=" M 470.05 442.93 C 474.61 442.62 479.49 441.68 483.83 443.56 C 484.99 445.13 485.73 446.96 486.17 448.86 C 480.69 449.89 475.12 449.05 469.61 448.79 C 469.73 446.83 469.88 444.88 470.05 442.93 Z" />
<path fill="#d2a93f" d=" M 180.26 478.48 C 184.18 476.80 191.68 478.57 190.73 483.96 C 188.48 489.12 180.46 488.95 177.06 485.04 C 175.10 482.50 177.59 479.13 180.26 478.48 Z" />
<path fill="#d2a93f" d=" M 200.43 489.51 C 204.51 487.95 212.51 490.01 210.60 495.71 C 207.96 499.76 201.54 499.97 197.95 497.15 C 195.16 494.71 197.22 490.31 200.43 489.51 Z" />
<path fill="#253a4a" d=" M 480.60 491.40 C 482.90 491.37 485.21 491.35 487.52 491.34 C 487.50 493.93 487.45 496.53 487.49 499.14 C 487.18 499.55 486.57 500.37 486.27 500.78 C 487.31 503.57 485.10 506.15 485.73 509.01 C 485.38 509.20 484.69 509.57 484.34 509.76 C 485.16 513.04 483.06 515.95 482.37 519.04 C 481.47 516.64 479.56 519.97 482.00 519.79 C 481.24 521.07 480.43 522.32 479.62 523.57 C 479.37 524.57 479.13 525.59 478.89 526.61 C 478.38 526.45 477.37 526.15 476.86 525.99 C 476.44 529.27 476.16 532.57 476.46 535.88 C 477.35 547.57 477.71 559.29 478.75 570.97 C 479.29 572.88 477.23 576.11 479.89 576.95 C 479.82 577.75 479.68 579.37 479.61 580.17 C 479.82 580.65 480.23 581.59 480.43 582.07 L 481.05 583.63 C 487.26 584.01 493.50 583.69 499.66 582.72 C 499.65 582.12 499.64 580.92 499.64 580.31 C 500.32 580.75 501.68 581.62 502.36 582.05 C 502.49 606.38 501.41 630.71 501.37 655.04 C 501.27 659.87 501.98 664.97 499.76 669.46 C 499.24 672.85 499.18 676.36 499.70 679.76 C 501.26 690.87 500.96 703.39 508.48 712.52 C 511.96 716.50 517.16 718.36 520.88 722.07 C 524.09 725.43 524.26 730.35 524.98 734.69 C 521.46 736.45 518.03 738.75 514.01 739.12 C 507.90 739.40 501.56 739.86 495.82 737.30 C 488.64 734.05 481.22 730.99 475.16 725.82 C 472.51 723.48 470.06 720.91 467.24 718.78 C 463.09 714.92 460.16 709.66 455.19 706.73 C 454.60 701.62 454.39 696.48 453.98 691.36 C 449.68 691.46 445.38 691.20 441.12 690.66 C 441.12 698.31 440.91 706.00 439.45 713.54 C 438.74 717.73 435.11 720.42 432.51 723.47 C 422.04 734.58 409.08 744.66 393.63 747.14 C 389.16 746.95 384.68 746.94 380.21 747.12 C 376.52 746.41 372.44 744.72 371.05 740.93 C 369.48 736.39 370.92 731.52 372.05 727.05 C 373.45 721.85 378.74 719.58 382.75 716.71 C 388.41 713.12 391.51 706.75 393.12 700.44 C 395.59 690.52 396.16 680.24 396.12 670.05 L 395.96 669.09 C 394.30 665.98 393.69 662.48 393.62 658.99 C 392.63 633.51 393.49 607.99 393.45 582.50 C 394.20 582.21 395.68 581.62 396.43 581.33 C 396.41 581.95 396.37 583.18 396.36 583.80 C 403.04 585.07 409.90 584.41 416.58 583.45 C 416.47 582.82 416.26 581.54 416.15 580.90 C 416.53 579.83 417.04 578.82 417.56 577.83 C 417.36 576.90 417.17 575.97 416.98 575.06 C 417.57 574.38 418.17 573.70 418.78 573.03 C 418.51 572.59 417.97 571.71 417.70 571.27 C 419.53 566.01 417.46 560.27 419.25 554.95 C 419.60 554.75 420.31 554.36 420.66 554.16 C 418.96 552.69 419.21 551.12 420.73 549.62 L 421.14 548.91 C 420.78 548.72 420.07 548.35 419.71 548.17 C 421.02 544.20 420.13 540.02 420.41 535.95 C 420.61 533.43 420.23 530.93 419.55 528.51 C 416.22 525.36 414.92 520.82 413.04 516.78 L 413.82 516.53 C 413.86 516.13 413.95 515.34 414.00 514.94 C 413.68 515.20 413.04 515.74 412.72 516.00 C 412.05 513.67 411.46 511.31 410.91 508.95 C 409.72 503.86 409.13 498.66 409.42 493.44 C 409.44 493.35 409.47 493.17 409.48 493.09 C 411.42 492.31 413.49 492.41 415.44 493.12 C 415.46 493.21 415.51 493.38 415.53 493.47 C 415.60 494.13 415.75 495.45 415.82 496.11 C 414.28 496.61 414.20 498.82 415.94 499.10 C 416.04 499.77 416.24 501.13 416.34 501.80 C 416.53 502.39 416.91 503.56 417.11 504.15 C 417.18 505.60 417.25 507.07 417.32 508.54 C 417.76 508.88 418.64 509.56 419.08 509.91 C 418.91 510.38 418.56 511.32 418.39 511.79 C 420.60 514.75 422.05 518.13 423.62 521.45 C 424.74 522.67 425.51 524.12 425.98 525.71 C 427.33 526.72 428.70 527.70 430.06 528.72 C 430.82 528.64 432.35 528.50 433.11 528.42 C 432.99 530.26 435.66 531.14 436.20 529.13 C 441.43 529.79 446.74 529.66 451.98 529.11 C 452.88 530.50 453.49 530.45 453.81 528.97 C 454.94 529.12 456.07 529.29 457.20 529.47 C 457.87 528.99 458.53 528.51 459.21 528.05 C 460.00 528.19 460.80 528.33 461.60 528.48 C 464.30 526.60 467.68 526.23 470.52 524.63 L 470.63 524.58 L 470.66 524.44 C 470.82 523.85 471.14 522.67 471.30 522.08 C 472.11 521.57 472.93 521.05 473.74 520.54 C 473.70 519.89 473.62 518.59 473.58 517.95 C 474.07 517.58 475.05 516.86 475.54 516.49 C 476.22 512.84 478.16 509.62 479.29 506.12 C 479.37 504.59 479.81 503.15 480.63 501.86 C 480.53 498.37 480.47 494.89 480.60 491.40 Z" />
<path fill="#d6d4cb" d=" M 409.42 493.10 L 409.48 493.09 C 409.47 493.17 409.44 493.35 409.42 493.44 L 409.42 493.10 Z" />
<path fill="#9ddaf0" d=" M 415.44 493.12 L 415.51 493.14 L 415.53 493.47 C 415.51 493.38 415.46 493.21 415.44 493.12 Z" />
<path fill="#7eb5db" d=" M 415.94 499.10 C 414.20 498.82 414.28 496.61 415.82 496.11 C 415.85 496.85 415.91 498.35 415.94 499.10 Z" />
<path fill="#9ddaf0" d=" M 159.41 514.25 C 161.19 509.10 161.88 503.51 164.50 498.70 C 166.64 505.55 168.47 512.51 170.54 519.39 C 171.56 522.93 172.35 527.03 170.45 530.44 C 167.74 534.84 160.28 534.56 157.93 529.92 C 155.17 524.86 158.22 519.30 159.41 514.25 Z" />
<path fill="#d6d4cb" d=" M 416.34 501.80 C 416.53 502.39 416.91 503.56 417.11 504.15 C 416.91 503.56 416.53 502.39 416.34 501.80 Z" />
<path fill="#d2a93f" d=" M 215.39 503.45 C 219.00 503.03 224.57 505.48 222.90 509.92 C 220.49 514.86 211.70 514.70 209.20 509.94 C 207.63 506.00 212.16 503.68 215.39 503.45 Z" />
<path fill="#7eb5db" d=" M 412.72 516.00 C 413.04 515.74 413.68 515.20 414.00 514.94 C 413.95 515.34 413.86 516.13 413.82 516.53 L 413.04 516.78 L 412.72 516.00 Z" />
<path fill="#7eb5db" d=" M 482.00 519.79 C 479.56 519.97 481.47 516.64 482.37 519.04 L 482.00 519.79 Z" />
<path fill="#d2a93f" d=" M 225.32 520.41 C 229.01 519.57 233.85 521.15 234.60 525.31 C 233.19 531.40 223.32 531.81 220.32 526.80 C 219.02 523.44 222.25 520.71 225.32 520.41 Z" />
<path fill="#d2a93f" d=" M 430.33 525.53 C 443.90 528.35 458.42 527.18 471.30 522.08 C 471.14 522.67 470.82 523.85 470.66 524.44 C 470.63 524.49 470.56 524.58 470.52 524.63 C 467.68 526.23 464.30 526.60 461.60 528.48 C 460.80 528.33 460.00 528.19 459.21 528.05 C 458.53 528.51 457.87 528.99 457.20 529.47 C 456.07 529.29 454.94 529.12 453.81 528.97 C 453.35 529.00 452.44 529.07 451.98 529.11 C 446.74 529.66 441.43 529.79 436.20 529.13 C 435.22 528.57 434.19 528.33 433.11 528.42 C 432.35 528.50 430.82 528.64 430.06 528.72 C 428.70 527.70 427.33 526.72 425.98 525.71 C 427.42 525.54 428.88 525.28 430.33 525.53 Z" />
<path fill="#d6d4cb" d=" M 470.52 524.63 C 470.56 524.58 470.63 524.49 470.66 524.44 L 470.63 524.58 L 470.52 524.63 Z" />
<path fill="#7eb5db" d=" M 433.11 528.42 C 434.19 528.33 435.22 528.57 436.20 529.13 C 435.66 531.14 432.99 530.26 433.11 528.42 Z" />
<path fill="#d6d4cb" d=" M 467.16 528.01 C 467.77 528.55 467.77 528.55 467.16 528.01 Z" />
<path fill="#d6d4cb" d=" M 451.98 529.11 C 452.44 529.07 453.35 529.00 453.81 528.97 C 453.49 530.45 452.88 530.50 451.98 529.11 Z" />
<path fill="#7eb5db" d=" M 471.01 533.27 C 472.62 532.63 473.18 533.14 472.71 534.79 C 471.09 535.43 470.52 534.92 471.01 533.27 Z" />
<path fill="#d6d4cb" d=" M 424.10 534.36 C 425.74 533.87 426.25 534.43 425.63 536.04 C 423.95 536.52 423.45 535.96 424.10 534.36 Z" />
<path fill="#d2a93f" d=" M 236.25 536.35 C 240.21 534.67 248.11 536.80 246.42 542.30 C 243.68 547.00 235.44 546.97 232.67 542.32 C 231.11 539.58 233.83 537.14 236.25 536.35 Z" />
<path fill="#d6d4cb" d=" M 475.09 537.27 C 478.40 537.44 473.55 540.29 475.09 537.27 Z" />
<path fill="#9ddaf0" d=" M 475.10 542.02 C 478.35 542.10 473.70 545.18 475.10 542.02 Z" />
<path fill="#d6d4cb" d=" M 474.98 546.28 C 476.39 545.34 477.46 547.75 476.47 548.69 C 475.09 549.69 473.75 547.17 474.98 546.28 Z" />
<path fill="#7eb5db" d=" M 419.71 548.17 C 420.07 548.35 420.78 548.72 421.14 548.91 L 420.73 549.62 L 419.95 549.59 C 419.89 549.23 419.77 548.52 419.71 548.17 Z" />
<path fill="#d2a93f" d=" M 253.32 549.50 C 256.62 548.65 260.76 549.17 262.82 552.19 C 264.49 553.82 263.18 556.44 261.62 557.61 C 257.91 560.06 251.83 559.73 249.42 555.63 C 248.16 552.86 250.77 550.17 253.32 549.50 Z" />
<path fill="#ffffff" d=" M 384.08 575.90 C 385.54 566.62 388.67 556.71 396.52 550.87 C 396.54 560.86 396.69 570.86 396.46 580.86 C 396.45 580.98 396.43 581.21 396.43 581.33 C 395.68 581.62 394.20 582.21 393.45 582.50 C 393.49 607.99 392.63 633.51 393.62 658.99 C 393.69 662.48 394.30 665.98 395.96 669.09 L 396.12 670.05 C 392.30 670.28 388.48 670.58 384.67 671.01 C 384.70 670.54 384.75 669.60 384.78 669.13 C 384.48 668.87 383.89 668.33 383.59 668.06 C 383.07 663.72 383.26 659.35 383.25 655.00 C 383.26 638.34 383.25 621.68 383.26 605.02 C 383.42 595.31 382.42 585.53 384.08 575.90 Z" />
<path fill="#7eb5db" d=" M 476.05 553.38 C 474.69 552.41 474.69 551.50 476.06 550.64 C 477.41 551.59 477.41 552.50 476.05 553.38 Z" />
<path fill="#ffffff" d=" M 499.43 552.00 C 505.93 557.20 509.44 565.15 511.18 573.12 C 513.95 584.55 512.49 596.38 512.81 608.01 C 512.61 628.44 513.20 648.89 512.50 669.30 C 512.12 669.26 511.34 669.19 510.95 669.15 C 510.48 669.39 509.53 669.88 509.05 670.12 C 506.17 670.31 503.00 668.89 500.34 670.30 C 499.26 673.30 500.17 676.63 499.70 679.76 C 499.18 676.36 499.24 672.85 499.76 669.46 C 501.98 664.97 501.27 659.87 501.37 655.04 C 501.41 630.71 502.49 606.38 502.36 582.05 C 501.68 581.62 500.32 580.75 499.64 580.31 C 499.63 580.22 499.62 580.05 499.62 579.96 C 499.20 570.64 499.55 561.31 499.43 552.00 Z" />
<path fill="#d2a93f" d=" M 324.31 554.47 C 328.33 553.15 335.40 555.47 333.76 560.79 C 330.88 565.14 323.88 565.24 320.37 561.67 C 318.27 558.54 321.14 555.07 324.31 554.47 Z" />
<path fill="#7eb5db" d=" M 476.06 556.25 C 479.38 556.35 474.58 559.30 476.06 556.25 Z" />
<path fill="#d2a93f" d=" M 277.30 558.40 C 281.27 557.02 288.40 559.44 286.64 564.67 C 283.85 569.10 275.97 569.30 273.02 564.98 C 271.44 561.76 274.31 558.98 277.30 558.40 Z" />
<path fill="#d2a93f" d=" M 300.40 558.41 C 304.56 557.05 311.83 559.57 309.96 565.04 C 306.78 569.17 299.20 569.16 296.33 564.71 C 294.82 561.77 297.71 559.04 300.40 558.41 Z" />
<path fill="#d6d4cb" d=" M 419.13 558.38 L 419.79 558.07 C 421.80 559.79 417.91 560.52 419.13 558.38 Z" />
<path fill="#7eb5db" d=" M 476.20 560.28 C 477.50 560.52 477.71 561.26 476.83 562.51 C 475.52 562.26 475.31 561.52 476.20 560.28 Z" />
<path fill="#7eb5db" d=" M 419.24 562.45 C 420.54 562.68 420.73 563.42 419.80 564.66 C 418.50 564.42 418.31 563.68 419.24 562.45 Z" />
<path fill="#7eb5db" d=" M 476.03 565.07 C 477.55 564.60 478.06 565.23 477.58 566.97 C 476.04 567.41 475.52 566.78 476.03 565.07 Z" />
<path fill="#d6d4cb" d=" M 430.41 566.21 C 431.93 565.72 432.36 566.15 431.70 567.50 C 430.19 567.97 429.76 567.54 430.41 566.21 Z" />
<path fill="#7eb5db" d=" M 434.38 566.96 C 434.70 565.72 435.51 565.50 436.82 566.30 C 436.49 567.55 435.68 567.77 434.38 566.96 Z" />
<path fill="#9ddaf0" d=" M 440.05 566.25 C 443.19 564.72 440.26 569.43 440.05 566.25 Z" />
<path fill="#9ddaf0" d=" M 445.16 566.26 C 448.27 564.72 445.44 569.44 445.16 566.26 Z" />
<path fill="#d6d4cb" d=" M 450.13 566.21 C 453.25 564.70 450.31 569.41 450.13 566.21 Z" />
<path fill="#d6d4cb" d=" M 455.22 566.24 C 458.33 564.67 455.53 569.41 455.22 566.24 Z" />
<path fill="#9ddaf0" d=" M 460.38 566.26 C 463.48 564.71 460.69 569.45 460.38 566.26 Z" />
<path fill="#7eb5db" d=" M 464.93 566.15 C 466.57 565.79 467.15 566.39 466.65 567.98 C 465.00 568.34 464.42 567.73 464.93 566.15 Z" />
<path fill="#7eb5db" d=" M 430.30 570.17 C 431.56 570.48 431.78 571.29 430.97 572.58 C 429.72 572.25 429.50 571.45 430.30 570.17 Z" />
<path fill="#7eb5db" d=" M 466.06 570.28 C 467.30 570.60 467.50 571.40 466.66 572.69 C 465.40 572.35 465.20 571.55 466.06 570.28 Z" />
<path fill="#7eb5db" d=" M 477.09 569.98 C 480.34 570.12 475.63 573.11 477.09 569.98 Z" />
<path fill="#ffffff" d=" M 446.11 573.11 C 447.54 573.10 448.98 573.09 450.42 573.09 C 450.42 574.31 450.43 575.54 450.43 576.78 C 451.58 576.81 452.73 576.84 453.89 576.88 C 453.88 578.20 453.88 579.53 453.89 580.86 C 453.05 580.87 451.37 580.89 450.53 580.90 C 450.49 581.91 450.39 582.93 450.23 583.95 C 448.85 584.02 447.47 584.07 446.10 584.09 C 446.06 583.29 445.99 581.69 445.95 580.88 C 445.19 580.88 443.67 580.88 442.92 580.88 C 442.90 579.53 442.89 578.18 442.89 576.83 C 443.66 576.84 445.21 576.85 445.98 576.86 C 446.02 575.60 446.06 574.35 446.11 573.11 Z" />
<path fill="#9ddaf0" d=" M 430.26 575.36 C 433.48 575.68 428.69 578.41 430.26 575.36 Z" />
<path fill="#7eb5db" d=" M 466.15 575.30 C 467.46 575.57 467.70 576.32 466.86 577.56 C 465.54 577.28 465.30 576.53 466.15 575.30 Z" />
<path fill="#9ddaf0" d=" M 430.30 580.23 C 433.57 580.63 428.61 583.17 430.30 580.23 Z" />
<path fill="#9ddaf0" d=" M 466.14 580.28 C 469.49 580.55 464.45 583.20 466.14 580.28 Z" />
<path fill="#d2a93f" d=" M 488.02 580.79 C 491.90 580.88 495.78 580.59 499.62 579.96 C 499.62 580.05 499.63 580.22 499.64 580.31 C 499.64 580.92 499.65 582.12 499.66 582.72 C 493.50 583.69 487.26 584.01 481.05 583.63 L 480.43 582.07 C 482.61 580.39 485.46 580.88 488.02 580.79 Z" />
<path fill="#d2a93f" d=" M 396.43 581.33 C 396.43 581.21 396.45 580.98 396.46 580.86 C 402.93 582.48 409.62 581.63 416.15 580.90 C 416.26 581.54 416.47 582.82 416.58 583.45 C 409.90 584.41 403.04 585.07 396.36 583.80 C 396.37 583.18 396.41 581.95 396.43 581.33 Z" />
<path fill="#ffffff" d=" M 431.23 585.24 C 431.78 585.80 431.78 585.80 431.23 585.24 Z" />
<path fill="#9ddaf0" d=" M 465.93 585.13 C 469.18 585.24 464.42 588.23 465.93 585.13 Z" />
<path fill="#7eb5db" d=" M 414.27 586.36 C 417.54 584.79 414.91 591.40 413.59 588.01 C 413.76 587.60 414.10 586.77 414.27 586.36 Z" />
<path fill="#7eb5db" d=" M 480.27 587.43 C 481.50 586.80 482.52 588.94 481.83 589.88 C 480.55 590.55 479.49 588.35 480.27 587.43 Z" />
<path fill="#ffffff" d=" M 432.21 589.25 C 433.54 588.98 434.08 589.57 433.82 591.02 C 432.51 591.26 431.97 590.67 432.21 589.25 Z" />
<path fill="#d6d4cb" d=" M 464.24 589.37 C 465.73 588.05 466.60 590.62 465.33 591.43 C 463.85 592.93 462.64 590.10 464.24 589.37 Z" />
<path fill="#9ddaf0" d=" M 413.28 591.41 C 416.54 591.62 411.64 594.46 413.28 591.41 Z" />
<path fill="#9ddaf0" d=" M 499.21 591.40 C 499.76 591.98 499.76 591.98 499.21 591.40 Z" />
<path fill="#7eb5db" d=" M 436.07 592.16 C 437.49 591.85 438.11 592.37 437.92 593.72 C 436.48 594.01 435.87 593.49 436.07 592.16 Z" />
<path fill="#7eb5db" d=" M 461.21 592.31 C 462.53 592.91 462.40 593.50 460.83 594.09 C 459.49 593.48 459.62 592.89 461.21 592.31 Z" />
<path fill="#d6d4cb" d=" M 483.12 592.36 C 483.73 592.91 483.73 592.91 483.12 592.36 Z" />
<path fill="#7eb5db" d=" M 440.38 593.97 C 441.64 593.15 442.44 593.39 442.79 594.67 C 441.52 595.46 440.72 595.23 440.38 593.97 Z" />
<path fill="#7eb5db" d=" M 445.37 594.16 C 446.61 593.33 447.35 593.58 447.58 594.92 C 446.33 595.74 445.59 595.48 445.37 594.16 Z" />
<path fill="#7eb5db" d=" M 450.30 594.23 C 451.53 593.31 452.28 593.51 452.56 594.81 C 451.32 595.71 450.57 595.52 450.30 594.23 Z" />
<path fill="#d6d4cb" d=" M 455.25 594.02 C 458.25 592.40 455.49 597.29 455.25 594.02 Z" />
<path fill="#7eb5db" d=" M 486.29 594.32 C 487.28 593.75 489.27 594.89 488.68 596.11 C 487.66 596.88 485.65 595.52 486.29 594.32 Z" />
<path fill="#d6d4cb" d=" M 496.08 594.32 C 496.71 594.85 496.71 594.85 496.08 594.32 Z" />
<path fill="#7eb5db" d=" M 410.27 597.08 C 410.03 595.68 410.60 595.10 411.98 595.35 C 412.21 596.74 411.64 597.32 410.27 597.08 Z" />
<path fill="#7eb5db" d=" M 491.28 596.06 C 494.29 594.55 491.34 599.42 491.28 596.06 Z" />
<path fill="#7eb5db" d=" M 402.31 598.45 C 402.85 599.01 402.85 599.01 402.31 598.45 Z" />
<path fill="#9ddaf0" d=" M 406.29 598.26 C 409.32 596.66 406.46 601.54 406.29 598.26 Z" />
<path fill="#253a4a" d=" M 338.17 668.82 C 338.94 668.56 339.72 668.31 340.51 668.07 C 348.10 673.67 358.20 672.71 367.07 672.01 C 372.63 671.27 378.78 671.36 383.59 668.06 C 383.89 668.33 384.48 668.87 384.78 669.13 C 384.75 669.60 384.70 670.54 384.67 671.01 C 384.23 679.27 383.50 687.65 380.39 695.39 C 375.81 707.72 365.69 717.83 353.28 722.21 C 344.52 725.00 335.76 727.94 326.60 729.08 C 324.50 729.01 322.39 729.01 320.30 729.08 C 316.12 728.49 311.61 727.58 308.57 724.42 C 307.04 722.82 305.09 720.61 306.29 718.26 C 309.07 712.44 315.33 709.72 320.36 706.21 C 330.25 699.66 337.76 689.08 339.03 677.11 C 339.30 674.31 339.10 671.48 338.17 668.82 Z" />
<path fill="#9ddaf0" d=" M 509.05 670.12 C 509.53 669.88 510.48 669.39 510.95 669.15 C 510.41 682.76 513.35 697.05 521.80 708.01 C 527.15 715.02 534.69 720.29 543.04 723.11 C 550.09 725.24 557.08 727.69 564.35 729.04 C 556.49 731.19 548.64 733.39 540.90 735.94 C 532.91 738.78 526.52 744.59 520.89 750.75 C 518.49 749.38 516.07 748.05 513.65 746.74 C 516.92 746.13 520.54 745.48 522.85 742.86 C 524.75 740.88 524.94 738.01 525.48 735.49 C 523.11 736.75 520.74 738.01 518.38 739.26 C 512.31 740.11 506.12 739.89 500.03 739.52 C 490.95 737.23 482.70 732.36 474.97 727.18 C 472.27 724.13 469.11 721.56 465.93 719.05 C 462.81 715.84 460.39 711.83 456.66 709.28 C 455.34 709.51 456.09 711.52 456.81 712.09 C 458.74 713.38 460.43 715.01 461.88 716.83 C 463.66 719.71 466.26 721.94 468.57 724.39 C 468.21 724.55 467.86 724.72 467.51 724.90 C 465.51 722.41 462.85 720.49 461.27 717.67 C 460.05 716.33 458.87 714.22 456.79 714.45 C 457.35 717.61 460.08 719.61 462.04 721.93 C 472.44 733.14 485.19 743.38 500.55 746.35 C 494.80 748.80 488.47 749.83 483.08 753.16 C 472.12 759.71 461.94 768.13 454.77 778.77 C 452.49 787.32 453.01 796.33 452.16 805.10 C 448.13 805.28 444.10 805.50 440.08 805.77 C 439.52 797.52 439.69 789.17 438.07 781.03 C 437.57 777.98 435.34 775.71 433.41 773.48 C 422.84 761.36 409.35 751.31 393.63 747.14 C 409.08 744.66 422.04 734.58 432.51 723.47 C 435.11 720.42 438.74 717.73 439.45 713.54 C 440.91 706.00 441.12 698.31 441.12 690.66 C 445.38 691.20 449.68 691.46 453.98 691.36 C 454.39 696.48 454.60 701.62 455.19 706.73 C 460.16 709.66 463.09 714.92 467.24 718.78 C 470.06 720.91 472.51 723.48 475.16 725.82 C 481.22 730.99 488.64 734.05 495.82 737.30 C 501.56 739.86 507.90 739.40 514.01 739.12 C 518.03 738.75 521.46 736.45 524.98 734.69 C 524.26 730.35 524.09 725.43 520.88 722.07 C 517.16 718.36 511.96 716.50 508.48 712.52 C 500.96 703.39 501.26 690.87 499.70 679.76 C 500.17 676.63 499.26 673.30 500.34 670.30 C 503.00 668.89 506.17 670.31 509.05 670.12 Z" />
<path fill="#253a4a" d=" M 510.95 669.15 C 511.34 669.19 512.12 669.26 512.50 669.30 C 520.82 672.79 530.11 672.89 539.00 673.04 C 544.73 673.27 550.42 671.77 555.28 668.74 C 555.72 668.84 556.61 669.03 557.05 669.12 C 556.55 671.35 555.94 673.61 556.11 675.93 C 557.08 687.82 563.69 698.88 573.44 705.67 C 578.84 709.82 586.23 712.45 589.13 719.07 C 589.97 724.71 583.49 728.05 578.77 729.04 C 574.00 730.02 569.14 729.52 564.35 729.04 C 557.08 727.69 550.09 725.24 543.04 723.11 C 534.69 720.29 527.15 715.02 521.80 708.01 C 513.35 697.05 510.41 682.76 510.95 669.15 Z" />
<path fill="#9ddaf0" d=" M 384.67 671.01 C 388.48 670.58 392.30 670.28 396.12 670.05 C 396.16 680.24 395.59 690.52 393.12 700.44 C 391.51 706.75 388.41 713.12 382.75 716.71 C 378.74 719.58 373.45 721.85 372.05 727.05 C 370.92 731.52 369.48 736.39 371.05 740.93 C 372.44 744.72 376.52 746.41 380.21 747.12 C 377.76 747.80 375.35 748.63 372.93 749.41 C 367.84 744.22 362.06 739.53 355.25 736.81 C 345.89 733.56 336.33 730.93 326.60 729.08 C 335.76 727.94 344.52 725.00 353.28 722.21 C 365.69 717.83 375.81 707.72 380.39 695.39 C 383.50 687.65 384.23 679.27 384.67 671.01 Z" />
<path fill="#9ddaf0" d=" M 556.11 675.93 C 589.49 681.22 622.79 689.20 653.59 703.40 C 667.10 709.77 680.28 717.50 690.69 728.37 C 697.68 735.84 703.26 745.49 703.00 756.02 C 702.92 767.69 696.04 778.05 687.80 785.79 C 675.10 797.78 659.24 805.65 643.32 812.43 C 614.75 823.94 584.57 830.99 554.19 835.72 C 553.16 823.52 554.13 811.25 553.87 799.02 C 554.04 794.90 553.01 790.34 555.48 786.70 C 555.01 774.54 560.53 762.57 569.83 754.80 C 575.18 750.04 582.21 747.42 586.89 741.88 C 588.13 740.43 589.51 738.39 588.50 736.45 C 586.74 732.47 582.43 730.80 578.77 729.04 C 583.49 728.05 589.97 724.71 589.13 719.07 C 586.23 712.45 578.84 709.82 573.44 705.67 C 563.69 698.88 557.08 687.82 556.11 675.93 Z" />
<path fill="#9ddaf0" d=" M 271.39 694.40 C 293.32 686.49 316.13 681.31 339.03 677.11 C 337.76 689.08 330.25 699.66 320.36 706.21 C 315.33 709.72 309.07 712.44 306.29 718.26 C 305.09 720.61 307.04 722.82 308.57 724.42 C 311.61 727.58 316.12 728.49 320.30 729.08 C 315.78 730.34 310.36 731.22 307.79 735.67 C 305.65 738.16 307.35 741.56 309.34 743.56 C 313.46 747.64 318.82 750.11 323.37 753.66 C 332.22 760.13 338.62 770.25 339.52 781.30 C 339.78 785.90 341.47 790.32 341.27 794.97 C 340.93 805.96 341.28 816.96 340.84 827.96 C 340.72 830.22 341.08 832.47 341.51 834.69 C 318.24 830.47 295.09 825.22 272.76 817.37 C 258.05 812.15 243.63 805.86 230.40 797.54 C 219.89 790.67 209.69 782.38 203.84 771.03 C 199.41 762.58 198.68 752.21 202.43 743.37 C 207.37 731.26 217.63 722.39 228.21 715.21 C 241.53 706.27 256.36 699.87 271.39 694.40 Z" />
<path fill="#253a4a" d=" M 456.81 712.09 C 456.09 711.52 455.34 709.51 456.66 709.28 C 460.39 711.83 462.81 715.84 465.93 719.05 C 469.11 721.56 472.27 724.13 474.97 727.18 C 482.70 732.36 490.95 737.23 500.03 739.52 C 506.12 739.89 512.31 740.11 518.38 739.26 C 520.74 738.01 523.11 736.75 525.48 735.49 C 524.94 738.01 524.75 740.88 522.85 742.86 C 520.54 745.48 516.92 746.13 513.65 746.74 C 509.29 747.27 504.89 746.89 500.55 746.35 C 485.19 743.38 472.44 733.14 462.04 721.93 C 460.08 719.61 457.35 717.61 456.79 714.45 C 458.87 714.22 460.05 716.33 461.27 717.67 C 462.85 720.49 465.51 722.41 467.51 724.90 C 467.86 724.72 468.21 724.55 468.57 724.39 C 466.26 721.94 463.66 719.71 461.88 716.83 C 460.43 715.01 458.74 713.38 456.81 712.09 Z" />
<path fill="#7eb5db" d=" M 320.30 729.08 C 322.39 729.01 324.50 729.01 326.60 729.08 C 336.33 730.93 345.89 733.56 355.25 736.81 C 362.06 739.53 367.84 744.22 372.93 749.41 C 375.35 748.63 377.76 747.80 380.21 747.12 C 384.68 746.94 389.16 746.95 393.63 747.14 C 409.35 751.31 422.84 761.36 433.41 773.48 C 435.34 775.71 437.57 777.98 438.07 781.03 C 439.69 789.17 439.52 797.52 440.08 805.77 C 444.10 805.50 448.13 805.28 452.16 805.10 C 453.01 796.33 452.49 787.32 454.77 778.77 C 461.94 768.13 472.12 759.71 483.08 753.16 C 488.47 749.83 494.80 748.80 500.55 746.35 C 504.89 746.89 509.29 747.27 513.65 746.74 C 516.07 748.05 518.49 749.38 520.89 750.75 C 526.52 744.59 532.91 738.78 540.90 735.94 C 548.64 733.39 556.49 731.19 564.35 729.04 C 569.14 729.52 574.00 730.02 578.77 729.04 C 582.43 730.80 586.74 732.47 588.50 736.45 C 589.51 738.39 588.13 740.43 586.89 741.88 C 582.21 747.42 575.18 750.04 569.83 754.80 C 560.53 762.57 555.01 774.54 555.48 786.70 C 553.01 790.34 554.04 794.90 553.87 799.02 C 554.13 811.25 553.16 823.52 554.19 835.72 C 540.25 838.19 526.15 839.69 512.05 840.89 C 511.85 828.59 511.99 816.28 511.86 803.98 C 511.77 798.87 512.21 793.73 511.33 788.67 C 510.65 784.79 510.78 780.85 510.89 776.94 C 507.43 779.49 504.31 782.65 502.67 786.69 C 499.40 794.33 498.59 802.76 497.96 810.97 C 497.80 817.09 496.92 823.34 498.54 829.35 C 499.63 833.41 499.33 837.63 499.14 841.78 C 463.41 844.36 427.45 843.97 391.76 840.93 C 391.88 836.83 391.38 832.37 393.77 828.77 C 395.98 825.58 395.27 821.59 395.19 817.96 C 394.58 807.57 393.96 796.87 389.77 787.20 C 388.75 784.61 387.05 782.40 385.02 780.53 C 385.24 785.79 383.02 790.76 383.31 796.01 C 383.43 810.72 383.24 825.43 383.16 840.15 C 369.21 838.93 355.32 836.96 341.51 834.69 C 341.08 832.47 340.72 830.22 340.84 827.96 C 341.28 816.96 340.93 805.96 341.27 794.97 C 341.47 790.32 339.78 785.90 339.52 781.30 C 338.62 770.25 332.22 760.13 323.37 753.66 C 318.82 750.11 313.46 747.64 309.34 743.56 C 307.35 741.56 305.65 738.16 307.79 735.67 C 310.36 731.22 315.78 730.34 320.30 729.08 Z" />
<path fill="#9ddaf0" d=" M 502.67 786.69 C 504.31 782.65 507.43 779.49 510.89 776.94 C 510.78 780.85 510.65 784.79 511.33 788.67 C 512.21 793.73 511.77 798.87 511.86 803.98 C 511.99 816.28 511.85 828.59 512.05 840.89 C 507.74 841.15 503.44 841.40 499.14 841.78 C 499.33 837.63 499.63 833.41 498.54 829.35 C 496.92 823.34 497.80 817.09 497.96 810.97 C 498.59 802.76 499.40 794.33 502.67 786.69 Z" />
<path fill="#9ddaf0" d=" M 385.02 780.53 C 387.05 782.40 388.75 784.61 389.77 787.20 C 393.96 796.87 394.58 807.57 395.19 817.96 C 395.27 821.59 395.98 825.58 393.77 828.77 C 391.38 832.37 391.88 836.83 391.76 840.93 C 388.89 840.66 386.03 840.39 383.16 840.15 C 383.24 825.43 383.43 810.72 383.31 796.01 C 383.02 790.76 385.24 785.79 385.02 780.53 Z" />
</svg>
